# xmcd
#
# Track frame offsets:
#	150
#	12748
#	26056
#	45377
#	61021
#	74978
#	98626
#	112991
#	128052
#	143116
#	154230
#	170449
#	184861
#	204066
#	221833
#	236420
#	248031
#	263808
#	277864
#	289708
#	303387
#
# Disc length: 4263
#
# Revision: 1
# Processed by: cddbd v1.5.1PL0 Copyright (c) Steve Scherf et al.
# Submitted via: audiograbber 1.83.01
# Normalized: r0:DSETVAR2
#
DISCID=2c10a515
DTITLE=Various Artist - Mobile Beat Country Vol 001
DYEAR=1900
DGENRE=
TTITLE0=LeAnn Rimes - Blue
TTITLE1=Mark Chesnutt - It Sure Is Monday
TTITLE2=Garth Brooks - Shameless
TTITLE3=Rhett Akins - What Theyre Talkin About
TTITLE4=Marty Stuart - Tempted
TTITLE5=David Allan Coe - You Never Even Called Me By My Name
TTITLE6=Wade Hayes - Old Enough To Know Better
TTITLE7=Gene Watson - Love In The Hot Afternoon
TTITLE8=Time McGraw - I Like It I Love It
TTITLE9=Alan Jackson - Tall Tall Trees
TTITLE10=Mark Wills - Places Ive Never Been
TTITLE11=George Strait - Places Ive Never Been
TTITLE12=Tracy Byrd - You Look So Good In Love
TTITLE13=Hank Williams, Jr. - Watermelon Crawl
TTITLE14=Wynonna - All My Rowdy Friends
TTITLE15=Freddy Fender - Girls With Guitars
TTITLE16=Lee Roy Parnell - Before The Next Teardrop Falls
TTITLE17=George Strait - Givin Water To A Drowning Man
TTITLE18=Skeeter Davis - Ocean Front Property
TTITLE19=Marty Stuart and Travis Tritt - End Of The World
TTITLE20=Alabama - Mountain Music
EXTD=
EXTT0=
EXTT1=
EXTT2=
EXTT3=
EXTT4=
EXTT5=
EXTT6=
EXTT7=
EXTT8=
EXTT9=
EXTT10=
EXTT11=
EXTT12=
EXTT13=
EXTT14=
EXTT15=
EXTT16=
EXTT17=
EXTT18=
EXTT19=
EXTT20=
PLAYORDER=
